<?xml version="1.0" encoding="UTF-8" standalone="no"?>
<!DOCTYPE svg PUBLIC "-//W3C//DTD SVG 1.1//EN"
 "http://www.w3.org/Graphics/SVG/1.1/DTD/svg11.dtd">
<!-- Generated by graphviz version 2.40.1 (20161225.0304)
 -->
<!-- Title: graph Pages: 1 -->
<svg width="272pt" height="360pt"
 viewBox="0.00 0.00 271.89 360.00" xmlns="http://www.w3.org/2000/svg" xmlns:xlink="http://www.w3.org/1999/xlink">
<g id="graph0" class="graph" transform="scale(.5195 .5195) rotate(0) translate(4 689.0156)">
<title>graph</title>
<polygon fill="#ffffff" stroke="transparent" points="-4,4 -4,-689.0156 519.3967,-689.0156 519.3967,4 -4,4"/>
<!-- (0, 0) -->
<g id="node1" class="node">
<title>(0, 0)</title>
<ellipse fill="#b2dfee" stroke="#b2dfee" cx="54.1348" cy="-667.0156" rx="29.0257" ry="18"/>
<text text-anchor="middle" x="54.1348" y="-662.8156" font-family="Times,serif" font-size="14.00" fill="#000000">(0, 0)</text>
</g>
<!-- (1, 0) -->
<g id="node4" class="node">
<title>(1, 0)</title>
<ellipse fill="#b2dfee" stroke="#b2dfee" cx="54.1348" cy="-451.0156" rx="29.0257" ry="18"/>
<text text-anchor="middle" x="54.1348" y="-446.8156" font-family="Times,serif" font-size="14.00" fill="#000000">(1, 0)</text>
</g>
<!-- (0, 0)&#45;&gt;(1, 0) -->
<g id="edge1" class="edge">
<title>(0, 0)&#45;&gt;(1, 0)</title>
<path fill="none" stroke="#000000" d="M58.0807,-648.971C61.8257,-608.2109 61.8194,-509.4232 58.0619,-468.8568"/>
<text text-anchor="middle" x="29.0356" y="-561.7139" font-family="Times,serif" font-size="14.00" fill="#000000">Cost = 1.0</text>
</g>
<!-- (0, 1) -->
<g id="node2" class="node">
<title>(0, 1)</title>
<ellipse fill="#b2dfee" stroke="#b2dfee" cx="270.1348" cy="-667.0156" rx="29.0257" ry="18"/>
<text text-anchor="middle" x="270.1348" y="-662.8156" font-family="Times,serif" font-size="14.00" fill="#000000">(0, 1)</text>
</g>
<!-- (0, 2) -->
<g id="node3" class="node">
<title>(0, 2)</title>
<ellipse fill="#b2dfee" stroke="#b2dfee" cx="486.1348" cy="-667.0156" rx="29.0257" ry="18"/>
<text text-anchor="middle" x="486.1348" y="-662.8156" font-family="Times,serif" font-size="14.00" fill="#000000">(0, 2)</text>
</g>
<!-- (1, 0)&#45;&gt;(0, 0) -->
<g id="edge14" class="edge">
<title>(1, 0)&#45;&gt;(0, 0)</title>
<path fill="none" stroke="#ff0000" d="M50.1888,-469.0601C46.7291,-506.7154 46.4709,-593.8949 49.4142,-638.9422"/>
<polygon fill="#ff0000" stroke="#ff0000" points="45.9449,-639.4748 50.2076,-649.1743 52.924,-638.9336 45.9449,-639.4748"/>
<text text-anchor="middle" x="46.3015" y="-542.8011" font-family="Times,serif" font-size="14.00" fill="#000000">7</text>
</g>
<!-- (1, 1) -->
<g id="node5" class="node">
<title>(1, 1)</title>
<ellipse fill="#b2dfee" stroke="#b2dfee" cx="270.1348" cy="-451.0156" rx="29.0257" ry="18"/>
<text text-anchor="middle" x="270.1348" y="-446.8156" font-family="Times,serif" font-size="14.00" fill="#000000">(1, 1)</text>
</g>
<!-- (1, 0)&#45;&gt;(1, 1) -->
<g id="edge2" class="edge">
<title>(1, 0)&#45;&gt;(1, 1)</title>
<path fill="none" stroke="#000000" d="M82.373,-455.7468C123.7692,-458.4383 200.4894,-458.4385 241.8896,-455.7473"/>
<text text-anchor="middle" x="133.0956" y="-458.547" font-family="Times,serif" font-size="14.00" fill="#000000">Cost = 1.0</text>
</g>
<!-- (1, 1)&#45;&gt;(1, 0) -->
<g id="edge13" class="edge">
<title>(1, 1)&#45;&gt;(1, 0)</title>
<path fill="none" stroke="#ff0000" d="M241.8965,-446.2843C203.6535,-443.7978 135.263,-443.6083 92.4241,-445.7157"/>
<polygon fill="#ff0000" stroke="#ff0000" points="92.1663,-442.2246 82.3799,-446.2838 92.5616,-449.2134 92.1663,-442.2246"/>
<text text-anchor="middle" x="163.6603" y="-434.8" font-family="Times,serif" font-size="14.00" fill="#000000">6</text>
</g>
<!-- (1, 2) -->
<g id="node6" class="node">
<title>(1, 2)</title>
<ellipse fill="#b2dfee" stroke="#b2dfee" cx="486.1348" cy="-451.0156" rx="29.0257" ry="18"/>
<text text-anchor="middle" x="486.1348" y="-446.8156" font-family="Times,serif" font-size="14.00" fill="#000000">(1, 2)</text>
</g>
<!-- (1, 1)&#45;&gt;(1, 2) -->
<g id="edge3" class="edge">
<title>(1, 1)&#45;&gt;(1, 2)</title>
<path fill="none" stroke="#000000" d="M298.373,-455.7468C339.7692,-458.4383 416.4894,-458.4385 457.8896,-455.7473"/>
<text text-anchor="middle" x="349.0956" y="-458.547" font-family="Times,serif" font-size="14.00" fill="#000000">Cost = 1.0</text>
</g>
<!-- (1, 2)&#45;&gt;(1, 1) -->
<g id="edge12" class="edge">
<title>(1, 2)&#45;&gt;(1, 1)</title>
<path fill="none" stroke="#ff0000" d="M457.8965,-446.2843C419.6535,-443.7978 351.263,-443.6083 308.4241,-445.7157"/>
<polygon fill="#ff0000" stroke="#ff0000" points="308.1663,-442.2246 298.3799,-446.2838 308.5616,-449.2134 308.1663,-442.2246"/>
<text text-anchor="middle" x="379.6603" y="-434.8" font-family="Times,serif" font-size="14.00" fill="#000000">5</text>
</g>
<!-- (2, 2) -->
<g id="node9" class="node">
<title>(2, 2)</title>
<ellipse fill="#b2dfee" stroke="#b2dfee" cx="486.1348" cy="-235.0156" rx="29.0257" ry="18"/>
<text text-anchor="middle" x="486.1348" y="-230.8156" font-family="Times,serif" font-size="14.00" fill="#000000">(2, 2)</text>
</g>
<!-- (1, 2)&#45;&gt;(2, 2) -->
<g id="edge4" class="edge">
<title>(1, 2)&#45;&gt;(2, 2)</title>
<path fill="none" stroke="#000000" d="M490.0807,-432.971C493.8257,-392.2109 493.8194,-293.4232 490.0619,-252.8568"/>
<text text-anchor="middle" x="461.0356" y="-345.7139" font-family="Times,serif" font-size="14.00" fill="#000000">Cost = 1.0</text>
</g>
<!-- (2, 0) -->
<g id="node7" class="node">
<title>(2, 0)</title>
<ellipse fill="#b2dfee" stroke="#b2dfee" cx="54.1348" cy="-235.0156" rx="29.0257" ry="18"/>
<text text-anchor="middle" x="54.1348" y="-230.8156" font-family="Times,serif" font-size="14.00" fill="#000000">(2, 0)</text>
</g>
<!-- (2, 1) -->
<g id="node8" class="node">
<title>(2, 1)</title>
<ellipse fill="#b2dfee" stroke="#b2dfee" cx="270.1348" cy="-235.0156" rx="29.0257" ry="18"/>
<text text-anchor="middle" x="270.1348" y="-230.8156" font-family="Times,serif" font-size="14.00" fill="#000000">(2, 1)</text>
</g>
<!-- (2, 2)&#45;&gt;(1, 2) -->
<g id="edge11" class="edge">
<title>(2, 2)&#45;&gt;(1, 2)</title>
<path fill="none" stroke="#ff0000" d="M482.1888,-253.0601C478.7291,-290.7154 478.4709,-377.8949 481.4142,-422.9422"/>
<polygon fill="#ff0000" stroke="#ff0000" points="477.9449,-423.4748 482.2076,-433.1743 484.924,-422.9336 477.9449,-423.4748"/>
<text text-anchor="middle" x="478.3015" y="-326.8011" font-family="Times,serif" font-size="14.00" fill="#000000">4</text>
</g>
<!-- (3, 2) -->
<g id="node12" class="node">
<title>(3, 2)</title>
<ellipse fill="#b2dfee" stroke="#b2dfee" cx="486.1348" cy="-19.0156" rx="29.0257" ry="18"/>
<text text-anchor="middle" x="486.1348" y="-14.8156" font-family="Times,serif" font-size="14.00" fill="#000000">(3, 2)</text>
</g>
<!-- (2, 2)&#45;&gt;(3, 2) -->
<g id="edge5" class="edge">
<title>(2, 2)&#45;&gt;(3, 2)</title>
<path fill="none" stroke="#000000" d="M490.0807,-216.971C493.8257,-176.2109 493.8194,-77.4232 490.0619,-36.8568"/>
<text text-anchor="middle" x="461.0356" y="-129.7139" font-family="Times,serif" font-size="14.00" fill="#000000">Cost = 1.0</text>
</g>
<!-- (3, 0) -->
<g id="node10" class="node">
<title>(3, 0)</title>
<ellipse fill="#b2dfee" stroke="#b2dfee" cx="54.1348" cy="-19.0156" rx="29.0257" ry="18"/>
<text text-anchor="middle" x="54.1348" y="-14.8156" font-family="Times,serif" font-size="14.00" fill="#000000">(3, 0)</text>
</g>
<!-- (3, 1) -->
<g id="node11" class="node">
<title>(3, 1)</title>
<ellipse fill="#b2dfee" stroke="#b2dfee" cx="270.1348" cy="-19.0156" rx="29.0257" ry="18"/>
<text text-anchor="middle" x="270.1348" y="-14.8156" font-family="Times,serif" font-size="14.00" fill="#000000">(3, 1)</text>
</g>
<!-- (3, 0)&#45;&gt;(3, 1) -->
<g id="edge6" class="edge">
<title>(3, 0)&#45;&gt;(3, 1)</title>
<path fill="none" stroke="#000000" d="M82.373,-23.7468C123.7692,-26.4383 200.4894,-26.4385 241.8896,-23.7473"/>
<text text-anchor="middle" x="133.0956" y="-26.547" font-family="Times,serif" font-size="14.00" fill="#000000">Cost = 1.0</text>
</g>
<!-- (3, 0)&#45;&gt;(3, 1) -->
<g id="edge8" class="edge">
<title>(3, 0)&#45;&gt;(3, 1)</title>
<path fill="none" stroke="#ff0000" d="M82.373,-14.2843C120.616,-11.7978 189.0065,-11.6083 231.8454,-13.7157"/>
<polygon fill="#ff0000" stroke="#ff0000" points="231.7079,-17.2134 241.8896,-14.2838 232.1032,-10.2246 231.7079,-17.2134"/>
<text text-anchor="middle" x="153.6092" y="-2.8" font-family="Times,serif" font-size="14.00" fill="#000000">1</text>
</g>
<!-- (3, 1)&#45;&gt;(3, 2) -->
<g id="edge7" class="edge">
<title>(3, 1)&#45;&gt;(3, 2)</title>
<path fill="none" stroke="#000000" d="M298.373,-23.7468C339.7692,-26.4383 416.4894,-26.4385 457.8896,-23.7473"/>
<text text-anchor="middle" x="349.0956" y="-26.547" font-family="Times,serif" font-size="14.00" fill="#000000">Cost = 1.0</text>
</g>
<!-- (3, 1)&#45;&gt;(3, 2) -->
<g id="edge9" class="edge">
<title>(3, 1)&#45;&gt;(3, 2)</title>
<path fill="none" stroke="#ff0000" d="M298.373,-14.2843C336.616,-11.7978 405.0065,-11.6083 447.8454,-13.7157"/>
<polygon fill="#ff0000" stroke="#ff0000" points="447.7079,-17.2134 457.8896,-14.2838 448.1032,-10.2246 447.7079,-17.2134"/>
<text text-anchor="middle" x="369.6092" y="-2.8" font-family="Times,serif" font-size="14.00" fill="#000000">2</text>
</g>
<!-- (3, 2)&#45;&gt;(2, 2) -->
<g id="edge10" class="edge">
<title>(3, 2)&#45;&gt;(2, 2)</title>
<path fill="none" stroke="#ff0000" d="M482.1888,-37.0601C478.7291,-74.7154 478.4709,-161.8949 481.4142,-206.9422"/>
<polygon fill="#ff0000" stroke="#ff0000" points="477.9449,-207.4748 482.2076,-217.1743 484.924,-206.9336 477.9449,-207.4748"/>
<text text-anchor="middle" x="478.3015" y="-110.8011" font-family="Times,serif" font-size="14.00" fill="#000000">3</text>
</g>
</g>
</svg>
